<svg xmlns="http://www.w3.org/2000/svg" version="1.1" xmlns:xlink="http://www.w3.org/1999/xlink" width="59.73496657717746" height="59.73496657717749"><svg xmlns="http://www.w3.org/2000/svg" xmlns:xlink="http://www.w3.org/1999/xlink" version="1.1" width="59.73496657717746" height="59.73496657717749" viewBox="213.00000001525024 289.00000001525007 59.73496657717746 59.73496657717749" xml:space="preserve">
<desc>Created with Fabric.js 5.3.0</desc>
<defs>
</defs>
<g transform="matrix(0.8381562233 0 0 0.8381562233 242.8674833038 318.8674833038)" id="SvgjsG1089">
<path style="stroke: rgb(251,49,126); stroke-width: 0; stroke-dasharray: none; stroke-linecap: butt; stroke-dashoffset: 0; stroke-linejoin: miter; stroke-miterlimit: 4; fill: rgb(0,0,0); fill-rule: nonzero; opacity: 1;" transform=" translate(0, 0)" d="M -35.63474 -35.63474 L 35.634750000000004 -35.63474 L 35.634750000000004 35.634750000000004 L -35.63474 35.634750000000004 z" stroke-linecap="round"></path>
</g>
<g transform="matrix(0.1493316729 0 0 0.1492215734 242.8674833038 319.4205848463)" id="SvgjsG1088">
<path style="stroke: none; stroke-width: 1; stroke-dasharray: none; stroke-linecap: butt; stroke-dashoffset: 0; stroke-linejoin: miter; stroke-miterlimit: 4; fill: rgb(255,255,255); fill-rule: nonzero; opacity: 1;" transform=" translate(-246.8455, -203.8355)" d="M 248.308 192.023 L 248.308 192.023 L 248.308 201.023 Q 234.133 202.823 227.833 207.998 Q 221.533 213.173 221.533 221.723 L 221.533 221.723 Q 221.533 227.798 223.895 234.885 Q 226.258 241.973 228.62 250.073 Q 230.983 258.173 230.983 267.623 L 230.983 267.623 Q 230.983 280.898 221.87 287.873 Q 212.758 294.848 196.783 294.848 L 196.783 294.848 L 186.658 294.848 L 186.658 285.848 L 192.733 285.173 Q 204.433 283.823 209.495 280.11 Q 214.558 276.398 214.558 266.723 L 214.558 266.723 Q 214.558 253.898 212.083 242.423 Q 209.608 230.948 209.608 224.198 L 209.608 224.198 Q 209.608 213.398 214.558 206.085 Q 219.508 198.773 230.533 196.523 L 230.533 196.523 Q 219.508 194.048 214.558 186.848 Q 209.608 179.648 209.608 168.848 L 209.608 168.848 Q 209.608 162.098 212.083 150.623 Q 214.558 139.148 214.558 126.323 L 214.558 126.323 Q 214.558 116.423 209.495 112.823 Q 204.433 109.223 192.733 107.873 L 192.733 107.873 L 186.658 107.198 L 186.658 98.198 L 196.783 98.198 Q 212.758 98.198 221.87 105.173 Q 230.983 112.148 230.983 125.423 L 230.983 125.423 Q 230.983 134.648 228.62 142.86 Q 226.258 151.073 223.895 158.16 Q 221.533 165.248 221.533 171.323 L 221.533 171.323 Q 221.533 179.648 227.833 184.935 Q 234.133 190.223 248.308 192.023 Z M 291.058 180.323 L 291.058 180.323 Q 284.308 180.323 279.695 175.598 Q 275.083 170.873 275.083 164.348 L 275.083 164.348 Q 275.083 157.598 279.695 152.873 Q 284.308 148.148 291.058 148.148 L 291.058 148.148 Q 297.808 148.148 302.42 152.873 Q 307.033 157.598 307.033 164.348 L 307.033 164.348 Q 307.033 170.873 302.42 175.598 Q 297.808 180.323 291.058 180.323 Z M 305.233 252.548 L 305.233 252.548 Q 305.233 266.048 298.82 277.523 Q 292.408 288.998 282.508 297.21 Q 272.608 305.423 261.808 309.473 L 261.808 309.473 L 258.658 301.823 Q 270.133 295.973 278.908 287.648 Q 287.683 279.323 291.733 266.723 L 291.733 266.723 L 283.408 260.198 Q 278.908 256.598 276.883 252.435 Q 274.858 248.273 274.858 243.998 L 274.858 243.998 Q 274.858 238.148 278.345 233.985 Q 281.833 229.823 288.808 229.823 L 288.808 229.823 Q 291.958 229.823 295.22 231.173 Q 298.483 232.523 302.758 236.348 L 302.758 236.348 Q 304.108 240.623 304.67 244.56 Q 305.233 248.498 305.233 252.548 Z" stroke-linecap="round"></path>
</g>
</svg><style>@media (prefers-color-scheme: light) { :root { filter: none; } }
@media (prefers-color-scheme: dark) { :root { filter: none; } }
</style></svg>